<svg width="159" height="30" viewBox="0 0 159 30" fill="none" xmlns="http://www.w3.org/2000/svg">
<path d="M33.2901 4.13379H29.145C26.8551 4.13379 25 5.98891 25 8.27884V22.0957C25 24.3856 26.8551 26.2407 29.145 26.2407H38.8168V23.4773H29.145C28.3817 23.4773 27.7634 22.859 27.7634 22.0957V16.5689H38.8168V13.8056H27.7634V8.27884C27.7634 7.51553 28.3817 6.89715 29.145 6.89715H38.8168V4.13379H33.2901Z" fill="white"/>
<path d="M55.2901 4.13379H51.145C48.8551 4.13379 47 5.98891 47 8.27884V22.0957C47 24.3856 48.8551 26.2407 51.145 26.2407H60.8168V23.4773H51.145C50.3817 23.4773 49.7634 22.859 49.7634 22.0957V16.5689H60.8168V13.8056H49.7634V8.27884C49.7634 7.51553 50.3817 6.89715 51.145 6.89715H60.8168V4.13379H55.2901Z" fill="white"/>
<path d="M81.4351 4.13383H71.7634C70.2368 4.13383 69 5.37058 69 6.89719V26.2407H71.7634V16.569H81.4351C83.7251 16.569 85.5802 14.7138 85.5802 12.4239V8.27887C85.5802 5.98895 83.7251 4.12416 81.4351 4.13383ZM82.8168 8.27887V12.4239C82.8168 13.1872 82.1984 13.8056 81.4351 13.8056H71.7634V6.89719H81.4351C82.1984 6.89719 82.8168 7.51557 82.8168 8.27887Z" fill="white"/>
<path d="M99.2901 23.4773H96.5267C95.0001 23.4773 93.7634 22.2406 93.7634 20.714V4.13379H91V20.714C91 23.7672 93.4735 26.2407 96.5267 26.2407H104.817V23.4773H99.2901Z" fill="white"/>
<path d="M11.073 4.13379H2.7829C1.25628 4.13379 0.0195312 5.37054 0.0195312 6.89715V23.4773C0.0195312 25.004 1.25628 26.2407 2.7829 26.2407H11.073C14.1262 26.2407 16.5997 23.7672 16.5997 20.714V9.66052C16.5997 6.60729 14.1262 4.13379 11.073 4.13379ZM13.8364 12.4239V20.714C13.8364 22.2406 12.5996 23.4773 11.073 23.4773H2.7829V6.89715H11.073C12.5996 6.89715 13.8364 8.1339 13.8364 9.66052V12.4239Z" fill="white"/>
<path d="M155.459 4.13379L149.875 13.8056H144.773L139.188 4.13379H136L142.348 15.1293C142.86 16.0182 143.817 16.5689 144.85 16.5689H145.942V26.2407H148.706V16.5689H149.798C150.831 16.5689 151.788 16.0182 152.3 15.1293L158.648 4.13379H155.459Z" fill="white"/>
<path d="M134.442 7.14022C134.259 6.88029 134.045 6.68152 133.785 6.52863L131.583 5.25956C131.277 5.09137 130.91 4.98435 130.528 4.98435C130.146 4.98435 129.794 5.07608 129.473 5.25956L126.216 7.14022V3.37891C126.216 3.33304 126.216 3.27188 126.201 3.22601V3.18014C126.201 3.14956 126.186 3.10369 126.186 3.07311C126.186 3.05782 126.186 3.04253 126.171 3.02724C126.171 2.99666 126.155 2.9508 126.155 2.92022C126.155 2.90493 126.14 2.88963 126.14 2.87434C126.125 2.82847 126.109 2.76731 126.094 2.72144C126.048 2.59912 125.987 2.46151 125.926 2.33919C125.742 2.00281 125.467 1.74289 125.161 1.55941L122.96 0.290343C122.654 0.122155 122.287 0.0151367 121.905 0.0151367H121.629C121.599 0.0151367 121.553 0.0304229 121.522 0.0304229H121.492C121.446 0.0304229 121.415 0.0457053 121.37 0.0609952H121.354C121.308 0.0762851 121.262 0.0915862 121.232 0.0915862C121.186 0.106876 121.155 0.122155 121.11 0.137445C121.064 0.152735 121.033 0.168032 120.987 0.183322C120.957 0.198612 120.911 0.213905 120.88 0.244485H120.865L110.055 6.48275C109.749 6.66623 109.489 6.92617 109.291 7.26255C109.107 7.59892 109.015 7.95058 109 8.30225V20.7941C109 21.0846 109.076 21.3904 109.199 21.6656L121.721 14.4335L134.442 7.14022ZM126.216 3.21073V3.16485V3.21073ZM126.201 3.05783C126.201 3.04254 126.201 3.02724 126.186 3.01195C126.186 3.02724 126.201 3.04254 126.201 3.05783ZM126.171 2.90493C126.171 2.88964 126.155 2.87434 126.155 2.85905C126.155 2.87434 126.171 2.88964 126.171 2.90493ZM113.312 14.5864V10.8251C113.312 10.4734 113.403 10.1065 113.602 9.78538C113.786 9.449 114.061 9.18906 114.367 9.00558L121.92 4.64796L126.232 7.14022L117.623 12.1094L113.312 14.5864Z" fill="white"/>
<path opacity="0.3" d="M114.367 9.00573L121.92 4.64811L126.232 7.14037V3.37906C126.232 3.33319 126.232 3.27203 126.217 3.22616V3.18029V3.21088V3.18029C126.217 3.14971 126.201 3.10384 126.201 3.07326V3.0121V3.04267V3.0121C126.201 2.98152 126.186 2.93566 126.186 2.90508V2.88977V2.90508V2.88977C126.186 2.87958 126.181 2.8694 126.171 2.8592C126.155 2.81333 126.14 2.75217 126.125 2.7063C126.079 2.58398 126.018 2.44637 125.957 2.32406C125.773 1.98768 125.498 1.72775 125.192 1.54428L122.99 0.275207C122.685 0.107018 122.318 0 121.935 0H121.66C121.63 0 121.584 0.0152862 121.553 0.0152862H121.523C121.477 0.0152862 121.446 0.0305686 121.4 0.0458585H121.385C121.339 0.0611484 121.293 0.0764494 121.263 0.0764494C121.217 0.0917393 121.186 0.107018 121.14 0.122308C121.095 0.137598 121.064 0.152895 121.018 0.168185C120.987 0.183475 120.942 0.198769 120.911 0.229348H120.896L110.086 6.46761C109.78 6.65109 109.52 6.91102 109.321 7.24739L113.633 9.73965C113.786 9.44914 114.061 9.18921 114.367 9.00573Z" fill="url(#paint0_linear_321_725)"/>
<path d="M121.736 14.4488L117.623 12.0789L113.312 14.5711V9.60189L109.291 7.27783C109.107 7.61421 109.015 7.96587 109 8.31753V20.8094C109 21.0999 109.076 21.4057 109.199 21.6809L121.736 14.4488Z" fill="white"/>
<path d="M130.069 25.7784L134.167 23.4085C134.473 23.225 134.733 22.965 134.931 22.6287C135.115 22.2923 135.207 21.9406 135.222 21.589V9.09712C135.222 8.80661 135.146 8.5008 135.023 8.22559L122.317 15.5647L109.795 22.7969C109.978 23.0568 110.192 23.2556 110.452 23.4085L112.654 24.6775C112.96 24.8457 113.327 24.9527 113.709 24.9527C114.091 24.9527 114.443 24.8457 114.764 24.6775L122.317 20.3199L130.926 15.3507V19.112C130.926 19.4637 130.834 19.8306 130.635 20.1517C130.436 20.4728 130.176 20.748 129.871 20.9315" fill="white"/>
<path opacity="0.3" d="M134.443 7.14024C134.259 6.88032 134.045 6.68155 133.785 6.52865L131.583 5.25958C131.278 5.09139 130.911 4.98438 130.528 4.98438C130.146 4.98438 129.794 5.0761 129.473 5.25958L117.608 12.1095L121.721 14.4794L134.443 7.14024Z" fill="url(#paint1_linear_321_725)"/>
<path opacity="0.8" d="M125.942 2.32406C125.758 1.98768 125.483 1.72775 125.177 1.54427L122.976 0.275207C122.67 0.107018 122.303 0 121.921 0C121.538 0 121.187 0.0917281 120.881 0.275207L120.346 0.581005C120.499 0.504555 120.667 0.458697 120.85 0.458697C121.447 0.458697 121.921 0.947973 121.921 1.52899V4.63282L125.193 2.73688C125.284 2.69101 125.407 2.66043 125.529 2.66043C125.911 2.66043 126.232 2.96624 126.232 3.36378C126.217 3.01211 126.125 2.66043 125.942 2.32406Z" fill="url(#paint2_linear_321_725)"/>
<path d="M126.233 7.14027V3.3178C126.202 2.96613 125.896 2.69092 125.529 2.69092C125.407 2.69092 125.3 2.7215 125.193 2.76737L121.921 4.66332L126.233 7.14027Z" fill="url(#paint3_linear_321_725)"/>
<path d="M130.62 20.167C130.436 20.5034 130.161 20.7633 129.855 20.9468L122.302 25.3044L117.99 22.8122L118.006 26.7264V26.7722C118.006 26.8028 118.021 26.8487 118.021 26.8793C118.021 26.8945 118.021 26.9098 118.036 26.9251C118.036 26.9557 118.051 27.0016 118.051 27.0322C118.051 27.0474 118.067 27.0627 118.067 27.078C118.082 27.1239 118.097 27.1851 118.113 27.2309C118.158 27.3533 118.22 27.4909 118.281 27.6132C118.464 27.9496 118.739 28.2095 119.045 28.393L121.247 29.662C121.553 29.8302 121.92 29.9372 122.302 29.9372H122.577C122.608 29.9372 122.654 29.9219 122.684 29.9219H122.715C122.761 29.9219 122.791 29.9067 122.837 29.8914H122.852C122.898 29.8761 122.944 29.8608 122.975 29.8608C123.021 29.8455 123.051 29.8302 123.097 29.8149C123.143 29.7996 123.174 29.7843 123.219 29.769C123.25 29.7538 123.296 29.7385 123.326 29.7079H123.342L134.152 23.4696C134.457 23.2861 134.717 23.0262 134.916 22.6898C135.1 22.3534 135.191 22.0018 135.207 21.6501M117.99 26.7416V26.7875V26.7416ZM118.021 26.8945C118.021 26.9098 118.021 26.9251 118.036 26.9404C118.021 26.9251 118.021 26.9098 118.021 26.8945ZM118.051 27.0474C118.051 27.0627 118.067 27.078 118.067 27.0933C118.051 27.078 118.051 27.0627 118.051 27.0474ZM134.916 22.644C135.1 22.3076 135.191 21.9559 135.207 21.6042L134.916 22.644Z" fill="white"/>
<path d="M117.99 22.8276V26.6501C118.021 27.0018 118.327 27.277 118.694 27.277C118.816 27.277 118.923 27.2464 119.03 27.2005L122.302 25.3046L117.99 22.8276Z" fill="url(#paint4_linear_321_725)"/>
<path opacity="0.8" d="M135.207 9.11275C135.207 8.82224 135.131 8.51643 135.008 8.24121L122.302 15.5804V20.3355L130.911 15.3663V19.1276C130.911 19.3111 130.88 19.4793 130.834 19.6628C130.819 19.7086 130.804 19.7545 130.788 19.8004C130.758 19.8921 130.727 19.9686 130.681 20.0603C130.666 20.1062 130.635 20.1368 130.62 20.1826C130.437 20.519 130.161 20.7789 129.856 20.9624L123.342 24.7237C123.036 24.8919 122.287 25.3353 122.287 25.3353V29.9682C122.669 29.9682 123.021 29.8764 123.342 29.6929L134.152 23.4546C134.458 23.2712 134.718 23.0112 134.917 22.6749C134.962 22.5984 135.008 22.5067 135.039 22.4149C135.146 22.155 135.192 21.8951 135.207 21.6199V9.11275Z" fill="url(#paint5_linear_321_725)"/>
<defs>
<linearGradient id="paint0_linear_321_725" x1="109.297" y1="4.86983" x2="126.227" y2="4.86983" gradientUnits="userSpaceOnUse">
<stop stop-color="#0E2C38"/>
<stop offset="1" stop-color="#0E2C38" stop-opacity="0"/>
</linearGradient>
<linearGradient id="paint1_linear_321_725" x1="117.608" y1="9.73188" x2="134.443" y2="9.73188" gradientUnits="userSpaceOnUse">
<stop stop-color="#0E2C38"/>
<stop offset="1" stop-color="#0E2C38" stop-opacity="0"/>
</linearGradient>
<linearGradient id="paint2_linear_321_725" x1="123.289" y1="-3.15277" x2="123.289" y2="3.53654" gradientUnits="userSpaceOnUse">
<stop stop-color="#0E2C38"/>
<stop offset="1" stop-color="#0E2C38" stop-opacity="0"/>
</linearGradient>
<linearGradient id="paint3_linear_321_725" x1="124.077" y1="1.90196" x2="124.077" y2="5.58988" gradientUnits="userSpaceOnUse">
<stop stop-color="#0E2C38"/>
<stop offset="1" stop-color="#0E2C38" stop-opacity="0"/>
</linearGradient>
<linearGradient id="paint4_linear_321_725" x1="120.146" y1="36.8806" x2="120.146" y2="24.086" gradientUnits="userSpaceOnUse">
<stop stop-color="#0E2C38"/>
<stop offset="1" stop-color="#0E2C38" stop-opacity="0"/>
</linearGradient>
<linearGradient id="paint5_linear_321_725" x1="117.764" y1="12.9994" x2="141.974" y2="26.5814" gradientUnits="userSpaceOnUse">
<stop offset="0.08" stop-color="#0E2C38"/>
<stop offset="1" stop-color="#0E2C38" stop-opacity="0"/>
</linearGradient>
</defs>
</svg>
