<svg width="159" height="30" viewBox="0 0 159 30" fill="none" xmlns="http://www.w3.org/2000/svg">
<path d="M33.3517 3.98145H29.1759C26.8689 3.98145 25 5.85036 25 8.15731V22.0768C25 24.3838 26.8689 26.2527 29.1759 26.2527H38.9195V23.4688H29.1759C28.4069 23.4688 27.7839 22.8458 27.7839 22.0768V16.509H38.9195V13.7251H27.7839V8.15731C27.7839 7.38832 28.4069 6.76535 29.1759 6.76535H38.9195V3.98145H33.3517V3.98145Z" fill="#183D4D"/>
<path d="M55.3517 3.98145H51.1759C48.8689 3.98145 47 5.85036 47 8.15731V22.0768C47 24.3838 48.8689 26.2527 51.1759 26.2527H60.9195V23.4688H51.1759C50.4069 23.4688 49.7839 22.8458 49.7839 22.0768V16.509H60.9195V13.7251H49.7839V8.15731C49.7839 7.38832 50.4069 6.76535 51.1759 6.76535H60.9195V3.98145H55.3517V3.98145Z" fill="#183D4D"/>
<path d="M81.5276 3.98148H71.7839C70.2459 3.98148 69 5.22743 69 6.76539V26.2527H71.7839V16.5091H81.5276C83.8345 16.5091 85.7034 14.6401 85.7034 12.3332V8.15734C85.7034 5.8504 83.8345 3.97175 81.5276 3.98148V3.98148ZM82.9195 8.15734V12.3332C82.9195 13.1022 82.2966 13.7252 81.5276 13.7252H71.7839V6.76539H81.5276C82.2966 6.76539 82.9195 7.38836 82.9195 8.15734Z" fill="#183D4D"/>
<path d="M99.3517 23.4688H96.5678C95.0299 23.4688 93.7839 22.2229 93.7839 20.6849V3.98145H91V20.6849C91 23.7608 93.4919 26.2527 96.5678 26.2527H104.92V23.4688H99.3517V23.4688Z" fill="#183D4D"/>
<path d="M11.1356 3.98145H2.78391C1.24595 3.98145 0 5.22739 0 6.76535V23.4688C0 25.0068 1.24595 26.2527 2.78391 26.2527H11.1356C14.2116 26.2527 16.7034 23.7608 16.7034 20.6849V9.54926C16.7034 6.47333 14.2116 3.98145 11.1356 3.98145V3.98145ZM13.9195 12.3332V20.6849C13.9195 22.2229 12.6736 23.4688 11.1356 23.4688H2.78391V6.76535H11.1356C12.6736 6.76535 13.9195 8.0113 13.9195 9.54926V12.3332Z" fill="#183D4D"/>
<path d="M155.604 3.98145L149.978 13.7251H144.838L139.212 3.98145H136L142.395 15.0587C142.911 15.9542 143.875 16.509 144.916 16.509H146.016V26.2527H148.8V16.509H149.9C150.942 16.509 151.905 15.9542 152.421 15.0587L158.816 3.98145H155.604V3.98145Z" fill="#183D4D"/>
<path d="M134.406 7.12525C134.23 6.87216 133.997 6.65802 133.744 6.51201L131.544 5.23686C131.232 5.06165 130.882 4.96431 130.493 4.96431C130.103 4.96431 129.753 5.06165 129.441 5.23686L126.19 7.11551V3.35821C126.19 3.30954 126.19 3.26087 126.18 3.20247V3.1538C126.18 3.11486 126.171 3.08566 126.161 3.04672C126.161 3.02726 126.151 3.00779 126.151 2.99805C126.141 2.95912 126.132 2.92992 126.132 2.89098C126.132 2.87151 126.122 2.86178 126.122 2.84231C126.112 2.79364 126.093 2.74497 126.083 2.6963C126.044 2.56976 125.976 2.44322 125.908 2.31668C125.723 1.98572 125.45 1.72291 125.149 1.5477L122.949 0.27255C122.637 0.0973394 122.277 0 121.897 0H121.751C121.722 0 121.703 0 121.674 0.00973394C121.654 0.00973394 121.635 0.00973394 121.615 0.0194679C121.576 0.0194679 121.547 0.0292018 121.508 0.0389358C121.498 0.0389358 121.489 0.0389358 121.479 0.0486697L121.362 0.0778715H121.352C121.313 0.0876055 121.265 0.0973394 121.226 0.116807C121.187 0.126541 121.138 0.146009 121.099 0.165477C121.06 0.184945 121.021 0.194679 120.982 0.214147H120.973C120.934 0.233615 120.905 0.253082 120.866 0.27255C120.866 0.27255 120.856 0.27255 120.856 0.282284L110.051 6.52174C109.75 6.70669 109.477 6.95977 109.292 7.29072C109.107 7.62168 109.01 7.98183 109 8.33225V20.8014C109 21.0935 109.068 21.3952 109.204 21.6775L121.713 14.4549L134.406 7.12525V7.12525ZM126.19 3.2122V3.16353C126.18 3.17327 126.19 3.19273 126.19 3.2122ZM126.171 3.05646C126.171 3.03699 126.161 3.01752 126.161 3.00779C126.161 3.01752 126.161 3.03699 126.171 3.05646ZM126.132 2.90071C126.132 2.88125 126.122 2.87151 126.122 2.85204C126.132 2.86178 126.132 2.88125 126.132 2.90071ZM113.302 14.562V10.8047C113.302 10.4445 113.4 10.0941 113.594 9.76314C113.789 9.43219 114.052 9.16937 114.354 8.99416L121.907 4.63336L126.21 7.11551L117.615 12.0798L113.302 14.562Z" fill="#2E696D"/>
<path d="M114.343 8.99416L121.897 4.63336L126.199 7.11551V3.35821C126.199 3.30954 126.199 3.26087 126.189 3.20247V3.1538V3.183V3.1538C126.189 3.11486 126.18 3.08566 126.17 3.04672V2.98832V3.01752V2.98832C126.16 2.94938 126.15 2.92018 126.15 2.88125V2.87151V2.88125V2.87151C126.15 2.86178 126.141 2.85204 126.141 2.84231C126.131 2.79364 126.111 2.74497 126.102 2.6963C126.063 2.56976 125.995 2.44322 125.926 2.31668C125.741 1.98572 125.469 1.72291 125.167 1.5477L122.967 0.27255C122.656 0.0973394 122.305 0 121.916 0H121.78C121.751 0 121.731 0 121.702 0.00973394C121.682 0.00973394 121.663 0.00973394 121.643 0.0194679C121.605 0.0194679 121.575 0.0292018 121.536 0.0389358C121.527 0.0389358 121.517 0.0389358 121.507 0.0486697L121.39 0.0778715H121.381C121.342 0.0876055 121.293 0.0973394 121.254 0.116807C121.215 0.126541 121.167 0.146009 121.128 0.165477C121.089 0.184945 121.05 0.194679 121.011 0.214147H121.001C120.962 0.233615 120.933 0.253082 120.894 0.27255C120.894 0.27255 120.884 0.27255 120.884 0.282284L110.08 6.52174C109.778 6.70669 109.505 6.95977 109.32 7.29072L113.623 9.77288C113.778 9.44192 114.041 9.17911 114.343 8.99416V8.99416Z" fill="url(#paint0_linear_321_724)"/>
<path opacity="0.4" d="M121.713 14.4552L117.605 12.0801L113.302 14.5622V9.59793L109.292 7.28125C109.107 7.6122 109.01 7.97236 109 8.32278V20.792C109 21.084 109.068 21.3857 109.204 21.668L121.713 14.4552V14.4552Z" fill="url(#paint1_linear_321_724)"/>
<path d="M129.957 25.8434L134.046 23.4877C134.347 23.3028 134.62 23.0497 134.805 22.7188C134.99 22.3878 135.087 22.0277 135.087 21.6772V9.19832C135.087 8.9063 135.019 8.60455 134.883 8.32227L122.2 15.6422L109.691 22.8648C109.867 23.1179 110.1 23.3223 110.353 23.478L112.553 24.7532C112.865 24.9284 113.215 25.0257 113.604 25.0257C113.994 25.0257 114.344 24.9284 114.656 24.7532L122.2 20.3924L130.795 15.428V19.1853C130.795 19.5455 130.697 19.8959 130.512 20.2269C130.327 20.5578 130.055 20.8206 129.753 20.9959" fill="#2E696D"/>
<path d="M134.405 7.12529C134.23 6.87221 133.996 6.65806 133.743 6.51205L131.543 5.23691C131.232 5.06169 130.872 4.96436 130.492 4.96436C130.113 4.96436 129.752 5.06169 129.441 5.23691L117.595 12.0799L121.712 14.4549L134.405 7.12529V7.12529Z" fill="url(#paint2_linear_321_724)"/>
<path d="M125.908 2.31668C125.723 1.98572 125.45 1.72291 125.148 1.5477L122.948 0.27255C122.637 0.0973394 122.287 0 121.897 0C121.508 0 121.157 0.0973394 120.856 0.27255L120.32 0.584036C120.476 0.506165 120.642 0.457495 120.826 0.457495C121.42 0.457495 121.897 0.934458 121.897 1.52823V4.63336L125.168 2.74497C125.265 2.6963 125.382 2.65737 125.499 2.65737C125.888 2.65737 126.2 2.96885 126.2 3.35821C126.19 3.00779 126.093 2.64763 125.908 2.31668V2.31668Z" fill="url(#paint3_linear_321_724)"/>
<path d="M126.2 7.11537V3.2802C126.161 2.92978 125.869 2.65723 125.509 2.65723C125.392 2.65723 125.275 2.68643 125.178 2.74483L121.907 4.63322L126.2 7.11537Z" fill="url(#paint4_linear_321_724)"/>
<path d="M130.512 20.2368C130.317 20.5678 130.054 20.8306 129.752 21.0058L122.199 25.3666L117.896 22.8844L117.906 26.7975V26.8462C117.906 26.8851 117.916 26.9143 117.926 26.9532C117.926 26.9727 117.935 26.9922 117.935 27.0019C117.945 27.0408 117.955 27.07 117.955 27.109C117.955 27.1284 117.965 27.1382 117.965 27.1576C117.974 27.2063 117.994 27.255 118.004 27.3037C118.042 27.4302 118.111 27.5567 118.179 27.6833C118.364 28.0142 118.636 28.2771 118.938 28.4523L121.138 29.7274C121.449 29.9026 121.81 30 122.189 30H122.335C122.364 30 122.384 30 122.413 29.9902C122.432 29.9902 122.452 29.9902 122.471 29.9805C122.51 29.9805 122.54 29.9708 122.579 29.961C122.588 29.961 122.598 29.961 122.608 29.9513C122.647 29.9416 122.686 29.9318 122.725 29.9221H122.734C122.773 29.9124 122.822 29.9026 122.861 29.8832C122.9 29.8734 122.948 29.854 122.987 29.8345C123.026 29.815 123.065 29.8053 123.104 29.7858H123.114C123.153 29.7663 123.182 29.7469 123.221 29.7274C123.221 29.7274 123.231 29.7274 123.231 29.7177L134.035 23.4782C134.337 23.2933 134.61 23.0402 134.795 22.7092C134.98 22.3783 135.077 22.0181 135.087 21.6677M117.906 26.7878V26.8364C117.916 26.817 117.906 26.8072 117.906 26.7878ZM117.926 26.9435C117.926 26.963 117.935 26.9824 117.935 26.9922C117.935 26.9824 117.935 26.963 117.926 26.9435ZM117.965 27.0992C117.965 27.1187 117.974 27.1284 117.974 27.1479C117.965 27.1382 117.965 27.1187 117.965 27.0992ZM134.814 22.719C134.999 22.388 135.096 22.0279 135.106 21.6774Z" fill="#2E696D"/>
<path d="M117.896 22.8843V26.7194C117.935 27.0699 118.227 27.3424 118.588 27.3424C118.704 27.3424 118.821 27.3132 118.919 27.2548L122.189 25.3664L117.896 22.8843V22.8843Z" fill="url(#paint5_linear_321_724)"/>
<g opacity="0.4">
<path d="M109.691 22.8647C109.867 23.1178 110.1 23.3222 110.353 23.4779L112.553 24.7531C112.865 24.9283 113.215 25.0256 113.604 25.0256C113.994 25.0256 114.344 24.9283 114.656 24.7531L122.2 20.3923V15.6421L109.691 22.8647V22.8647Z" fill="url(#paint6_linear_321_724)"/>
</g>
<path d="M135.097 9.19832C135.097 8.9063 135.029 8.60455 134.892 8.32227L122.199 15.6422V20.3924L130.794 15.428V19.1853C130.794 19.3606 130.765 19.5455 130.716 19.7207C130.707 19.7694 130.687 19.8083 130.677 19.8473C130.648 19.9349 130.609 20.0225 130.57 20.1003C130.551 20.1393 130.531 20.1879 130.502 20.2269C130.317 20.5578 130.045 20.8206 129.743 20.9959L123.241 24.7532C122.929 24.9284 122.189 25.3664 122.189 25.3664V29.99C122.569 29.99 122.929 29.8927 123.241 29.7175L134.036 23.478C134.337 23.2931 134.61 23.04 134.795 22.709C134.844 22.6312 134.883 22.5436 134.921 22.4559C135.029 22.2029 135.077 21.9303 135.087 21.6675L135.097 9.19832V9.19832Z" fill="url(#paint7_linear_321_724)"/>
<defs>
<linearGradient id="paint0_linear_321_724" x1="109.285" y1="4.88644" x2="126.194" y2="4.88644" gradientUnits="userSpaceOnUse">
<stop stop-color="#3FAAB0"/>
<stop offset="1" stop-color="#3FAAB0" stop-opacity="0"/>
</linearGradient>
<linearGradient id="paint1_linear_321_724" x1="90.1551" y1="24.8695" x2="117.137" y2="10.18" gradientUnits="userSpaceOnUse">
<stop stop-color="#3FAAB0"/>
<stop offset="1" stop-color="#3FAAB0" stop-opacity="0"/>
</linearGradient>
<linearGradient id="paint2_linear_321_724" x1="117.595" y1="9.70965" x2="134.405" y2="9.70965" gradientUnits="userSpaceOnUse">
<stop stop-color="#3FAAB0"/>
<stop offset="1" stop-color="#3FAAB0" stop-opacity="0"/>
</linearGradient>
<linearGradient id="paint3_linear_321_724" x1="123.26" y1="-3.1538" x2="123.26" y2="3.52758" gradientUnits="userSpaceOnUse">
<stop stop-color="#0E2C38"/>
<stop offset="1" stop-color="#0E2C38" stop-opacity="0"/>
</linearGradient>
<linearGradient id="paint4_linear_321_724" x1="124.054" y1="1.89506" x2="124.054" y2="5.57741" gradientUnits="userSpaceOnUse">
<stop stop-color="#0E2C38"/>
<stop offset="1" stop-color="#0E2C38" stop-opacity="0"/>
</linearGradient>
<linearGradient id="paint5_linear_321_724" x1="120.043" y1="28.1114" x2="120.043" y2="24.4291" gradientUnits="userSpaceOnUse">
<stop stop-color="#0E2C38"/>
<stop offset="1" stop-color="#0E2C38" stop-opacity="0"/>
</linearGradient>
<linearGradient id="paint6_linear_321_724" x1="96.0483" y1="32.8468" x2="119.812" y2="19.415" gradientUnits="userSpaceOnUse">
<stop stop-color="#3FAAB0"/>
<stop offset="1" stop-color="#3FAAB0" stop-opacity="0"/>
</linearGradient>
<linearGradient id="paint7_linear_321_724" x1="117.685" y1="13.0656" x2="141.863" y2="26.6299" gradientUnits="userSpaceOnUse">
<stop stop-color="#0E2C38"/>
<stop offset="1" stop-color="#0E2C38" stop-opacity="0"/>
</linearGradient>
</defs>
</svg>
